<svg xmlns="http://www.w3.org/2000/svg" viewBox="0 0 178 10" shape-rendering="crispEdges"><title>SUMMER IN SEASON — Silkscreen</title><g fill="#155d29"><rect x="2" y="0" width="1" height="1"/><rect x="3" y="0" width="1" height="1"/><rect x="4" y="0" width="1" height="1"/><rect x="5" y="0" width="1" height="1"/><rect x="6" y="0" width="1" height="1"/><rect x="7" y="0" width="1" height="1"/><rect x="12" y="0" width="1" height="1"/><rect x="13" y="0" width="1" height="1"/><rect x="18" y="0" width="1" height="1"/><rect x="19" y="0" width="1" height="1"/><rect x="24" y="0" width="1" height="1"/><rect x="25" y="0" width="1" height="1"/><rect x="32" y="0" width="1" height="1"/><rect x="33" y="0" width="1" height="1"/><rect x="38" y="0" width="1" height="1"/><rect x="39" y="0" width="1" height="1"/><rect x="46" y="0" width="1" height="1"/><rect x="47" y="0" width="1" height="1"/><rect x="52" y="0" width="1" height="1"/><rect x="53" y="0" width="1" height="1"/><rect x="54" y="0" width="1" height="1"/><rect x="55" y="0" width="1" height="1"/><rect x="56" y="0" width="1" height="1"/><rect x="57" y="0" width="1" height="1"/><rect x="62" y="0" width="1" height="1"/><rect x="63" y="0" width="1" height="1"/><rect x="64" y="0" width="1" height="1"/><rect x="65" y="0" width="1" height="1"/><rect x="66" y="0" width="1" height="1"/><rect x="67" y="0" width="1" height="1"/><rect x="82" y="0" width="1" height="1"/><rect x="83" y="0" width="1" height="1"/><rect x="88" y="0" width="1" height="1"/><rect x="89" y="0" width="1" height="1"/><rect x="96" y="0" width="1" height="1"/><rect x="97" y="0" width="1" height="1"/><rect x="112" y="0" width="1" height="1"/><rect x="113" y="0" width="1" height="1"/><rect x="114" y="0" width="1" height="1"/><rect x="115" y="0" width="1" height="1"/><rect x="116" y="0" width="1" height="1"/><rect x="117" y="0" width="1" height="1"/><rect x="122" y="0" width="1" height="1"/><rect x="123" y="0" width="1" height="1"/><rect x="124" y="0" width="1" height="1"/><rect x="125" y="0" width="1" height="1"/><rect x="126" y="0" width="1" height="1"/><rect x="127" y="0" width="1" height="1"/><rect x="134" y="0" width="1" height="1"/><rect x="135" y="0" width="1" height="1"/><rect x="136" y="0" width="1" height="1"/><rect x="137" y="0" width="1" height="1"/><rect x="146" y="0" width="1" height="1"/><rect x="147" y="0" width="1" height="1"/><rect x="148" y="0" width="1" height="1"/><rect x="149" y="0" width="1" height="1"/><rect x="150" y="0" width="1" height="1"/><rect x="151" y="0" width="1" height="1"/><rect x="158" y="0" width="1" height="1"/><rect x="159" y="0" width="1" height="1"/><rect x="160" y="0" width="1" height="1"/><rect x="161" y="0" width="1" height="1"/><rect x="168" y="0" width="1" height="1"/><rect x="169" y="0" width="1" height="1"/><rect x="176" y="0" width="1" height="1"/><rect x="177" y="0" width="1" height="1"/><rect x="2" y="1" width="1" height="1"/><rect x="3" y="1" width="1" height="1"/><rect x="4" y="1" width="1" height="1"/><rect x="5" y="1" width="1" height="1"/><rect x="6" y="1" width="1" height="1"/><rect x="7" y="1" width="1" height="1"/><rect x="12" y="1" width="1" height="1"/><rect x="13" y="1" width="1" height="1"/><rect x="18" y="1" width="1" height="1"/><rect x="19" y="1" width="1" height="1"/><rect x="24" y="1" width="1" height="1"/><rect x="25" y="1" width="1" height="1"/><rect x="32" y="1" width="1" height="1"/><rect x="33" y="1" width="1" height="1"/><rect x="38" y="1" width="1" height="1"/><rect x="39" y="1" width="1" height="1"/><rect x="46" y="1" width="1" height="1"/><rect x="47" y="1" width="1" height="1"/><rect x="52" y="1" width="1" height="1"/><rect x="53" y="1" width="1" height="1"/><rect x="54" y="1" width="1" height="1"/><rect x="55" y="1" width="1" height="1"/><rect x="56" y="1" width="1" height="1"/><rect x="57" y="1" width="1" height="1"/><rect x="62" y="1" width="1" height="1"/><rect x="63" y="1" width="1" height="1"/><rect x="64" y="1" width="1" height="1"/><rect x="65" y="1" width="1" height="1"/><rect x="66" y="1" width="1" height="1"/><rect x="67" y="1" width="1" height="1"/><rect x="82" y="1" width="1" height="1"/><rect x="83" y="1" width="1" height="1"/><rect x="88" y="1" width="1" height="1"/><rect x="89" y="1" width="1" height="1"/><rect x="96" y="1" width="1" height="1"/><rect x="97" y="1" width="1" height="1"/><rect x="112" y="1" width="1" height="1"/><rect x="113" y="1" width="1" height="1"/><rect x="114" y="1" width="1" height="1"/><rect x="115" y="1" width="1" height="1"/><rect x="116" y="1" width="1" height="1"/><rect x="117" y="1" width="1" height="1"/><rect x="122" y="1" width="1" height="1"/><rect x="123" y="1" width="1" height="1"/><rect x="124" y="1" width="1" height="1"/><rect x="125" y="1" width="1" height="1"/><rect x="126" y="1" width="1" height="1"/><rect x="127" y="1" width="1" height="1"/><rect x="134" y="1" width="1" height="1"/><rect x="135" y="1" width="1" height="1"/><rect x="136" y="1" width="1" height="1"/><rect x="137" y="1" width="1" height="1"/><rect x="146" y="1" width="1" height="1"/><rect x="147" y="1" width="1" height="1"/><rect x="148" y="1" width="1" height="1"/><rect x="149" y="1" width="1" height="1"/><rect x="150" y="1" width="1" height="1"/><rect x="151" y="1" width="1" height="1"/><rect x="158" y="1" width="1" height="1"/><rect x="159" y="1" width="1" height="1"/><rect x="160" y="1" width="1" height="1"/><rect x="161" y="1" width="1" height="1"/><rect x="168" y="1" width="1" height="1"/><rect x="169" y="1" width="1" height="1"/><rect x="176" y="1" width="1" height="1"/><rect x="177" y="1" width="1" height="1"/><rect x="0" y="2" width="1" height="1"/><rect x="1" y="2" width="1" height="1"/><rect x="12" y="2" width="1" height="1"/><rect x="13" y="2" width="1" height="1"/><rect x="18" y="2" width="1" height="1"/><rect x="19" y="2" width="1" height="1"/><rect x="24" y="2" width="1" height="1"/><rect x="25" y="2" width="1" height="1"/><rect x="26" y="2" width="1" height="1"/><rect x="27" y="2" width="1" height="1"/><rect x="30" y="2" width="1" height="1"/><rect x="31" y="2" width="1" height="1"/><rect x="32" y="2" width="1" height="1"/><rect x="33" y="2" width="1" height="1"/><rect x="38" y="2" width="1" height="1"/><rect x="39" y="2" width="1" height="1"/><rect x="40" y="2" width="1" height="1"/><rect x="41" y="2" width="1" height="1"/><rect x="44" y="2" width="1" height="1"/><rect x="45" y="2" width="1" height="1"/><rect x="46" y="2" width="1" height="1"/><rect x="47" y="2" width="1" height="1"/><rect x="52" y="2" width="1" height="1"/><rect x="53" y="2" width="1" height="1"/><rect x="62" y="2" width="1" height="1"/><rect x="63" y="2" width="1" height="1"/><rect x="68" y="2" width="1" height="1"/><rect x="69" y="2" width="1" height="1"/><rect x="82" y="2" width="1" height="1"/><rect x="83" y="2" width="1" height="1"/><rect x="88" y="2" width="1" height="1"/><rect x="89" y="2" width="1" height="1"/><rect x="90" y="2" width="1" height="1"/><rect x="91" y="2" width="1" height="1"/><rect x="96" y="2" width="1" height="1"/><rect x="97" y="2" width="1" height="1"/><rect x="110" y="2" width="1" height="1"/><rect x="111" y="2" width="1" height="1"/><rect x="122" y="2" width="1" height="1"/><rect x="123" y="2" width="1" height="1"/><rect x="132" y="2" width="1" height="1"/><rect x="133" y="2" width="1" height="1"/><rect x="138" y="2" width="1" height="1"/><rect x="139" y="2" width="1" height="1"/><rect x="144" y="2" width="1" height="1"/><rect x="145" y="2" width="1" height="1"/><rect x="156" y="2" width="1" height="1"/><rect x="157" y="2" width="1" height="1"/><rect x="162" y="2" width="1" height="1"/><rect x="163" y="2" width="1" height="1"/><rect x="168" y="2" width="1" height="1"/><rect x="169" y="2" width="1" height="1"/><rect x="170" y="2" width="1" height="1"/><rect x="171" y="2" width="1" height="1"/><rect x="176" y="2" width="1" height="1"/><rect x="177" y="2" width="1" height="1"/><rect x="0" y="3" width="1" height="1"/><rect x="1" y="3" width="1" height="1"/><rect x="12" y="3" width="1" height="1"/><rect x="13" y="3" width="1" height="1"/><rect x="18" y="3" width="1" height="1"/><rect x="19" y="3" width="1" height="1"/><rect x="24" y="3" width="1" height="1"/><rect x="25" y="3" width="1" height="1"/><rect x="26" y="3" width="1" height="1"/><rect x="27" y="3" width="1" height="1"/><rect x="30" y="3" width="1" height="1"/><rect x="31" y="3" width="1" height="1"/><rect x="32" y="3" width="1" height="1"/><rect x="33" y="3" width="1" height="1"/><rect x="38" y="3" width="1" height="1"/><rect x="39" y="3" width="1" height="1"/><rect x="40" y="3" width="1" height="1"/><rect x="41" y="3" width="1" height="1"/><rect x="44" y="3" width="1" height="1"/><rect x="45" y="3" width="1" height="1"/><rect x="46" y="3" width="1" height="1"/><rect x="47" y="3" width="1" height="1"/><rect x="52" y="3" width="1" height="1"/><rect x="53" y="3" width="1" height="1"/><rect x="62" y="3" width="1" height="1"/><rect x="63" y="3" width="1" height="1"/><rect x="68" y="3" width="1" height="1"/><rect x="69" y="3" width="1" height="1"/><rect x="82" y="3" width="1" height="1"/><rect x="83" y="3" width="1" height="1"/><rect x="88" y="3" width="1" height="1"/><rect x="89" y="3" width="1" height="1"/><rect x="90" y="3" width="1" height="1"/><rect x="91" y="3" width="1" height="1"/><rect x="96" y="3" width="1" height="1"/><rect x="97" y="3" width="1" height="1"/><rect x="110" y="3" width="1" height="1"/><rect x="111" y="3" width="1" height="1"/><rect x="122" y="3" width="1" height="1"/><rect x="123" y="3" width="1" height="1"/><rect x="132" y="3" width="1" height="1"/><rect x="133" y="3" width="1" height="1"/><rect x="138" y="3" width="1" height="1"/><rect x="139" y="3" width="1" height="1"/><rect x="144" y="3" width="1" height="1"/><rect x="145" y="3" width="1" height="1"/><rect x="156" y="3" width="1" height="1"/><rect x="157" y="3" width="1" height="1"/><rect x="162" y="3" width="1" height="1"/><rect x="163" y="3" width="1" height="1"/><rect x="168" y="3" width="1" height="1"/><rect x="169" y="3" width="1" height="1"/><rect x="170" y="3" width="1" height="1"/><rect x="171" y="3" width="1" height="1"/><rect x="176" y="3" width="1" height="1"/><rect x="177" y="3" width="1" height="1"/><rect x="2" y="4" width="1" height="1"/><rect x="3" y="4" width="1" height="1"/><rect x="4" y="4" width="1" height="1"/><rect x="5" y="4" width="1" height="1"/><rect x="12" y="4" width="1" height="1"/><rect x="13" y="4" width="1" height="1"/><rect x="18" y="4" width="1" height="1"/><rect x="19" y="4" width="1" height="1"/><rect x="24" y="4" width="1" height="1"/><rect x="25" y="4" width="1" height="1"/><rect x="28" y="4" width="1" height="1"/><rect x="29" y="4" width="1" height="1"/><rect x="32" y="4" width="1" height="1"/><rect x="33" y="4" width="1" height="1"/><rect x="38" y="4" width="1" height="1"/><rect x="39" y="4" width="1" height="1"/><rect x="42" y="4" width="1" height="1"/><rect x="43" y="4" width="1" height="1"/><rect x="46" y="4" width="1" height="1"/><rect x="47" y="4" width="1" height="1"/><rect x="52" y="4" width="1" height="1"/><rect x="53" y="4" width="1" height="1"/><rect x="54" y="4" width="1" height="1"/><rect x="55" y="4" width="1" height="1"/><rect x="56" y="4" width="1" height="1"/><rect x="57" y="4" width="1" height="1"/><rect x="62" y="4" width="1" height="1"/><rect x="63" y="4" width="1" height="1"/><rect x="64" y="4" width="1" height="1"/><rect x="65" y="4" width="1" height="1"/><rect x="66" y="4" width="1" height="1"/><rect x="67" y="4" width="1" height="1"/><rect x="82" y="4" width="1" height="1"/><rect x="83" y="4" width="1" height="1"/><rect x="88" y="4" width="1" height="1"/><rect x="89" y="4" width="1" height="1"/><rect x="92" y="4" width="1" height="1"/><rect x="93" y="4" width="1" height="1"/><rect x="96" y="4" width="1" height="1"/><rect x="97" y="4" width="1" height="1"/><rect x="112" y="4" width="1" height="1"/><rect x="113" y="4" width="1" height="1"/><rect x="114" y="4" width="1" height="1"/><rect x="115" y="4" width="1" height="1"/><rect x="122" y="4" width="1" height="1"/><rect x="123" y="4" width="1" height="1"/><rect x="124" y="4" width="1" height="1"/><rect x="125" y="4" width="1" height="1"/><rect x="126" y="4" width="1" height="1"/><rect x="127" y="4" width="1" height="1"/><rect x="132" y="4" width="1" height="1"/><rect x="133" y="4" width="1" height="1"/><rect x="134" y="4" width="1" height="1"/><rect x="135" y="4" width="1" height="1"/><rect x="136" y="4" width="1" height="1"/><rect x="137" y="4" width="1" height="1"/><rect x="138" y="4" width="1" height="1"/><rect x="139" y="4" width="1" height="1"/><rect x="146" y="4" width="1" height="1"/><rect x="147" y="4" width="1" height="1"/><rect x="148" y="4" width="1" height="1"/><rect x="149" y="4" width="1" height="1"/><rect x="156" y="4" width="1" height="1"/><rect x="157" y="4" width="1" height="1"/><rect x="162" y="4" width="1" height="1"/><rect x="163" y="4" width="1" height="1"/><rect x="168" y="4" width="1" height="1"/><rect x="169" y="4" width="1" height="1"/><rect x="172" y="4" width="1" height="1"/><rect x="173" y="4" width="1" height="1"/><rect x="176" y="4" width="1" height="1"/><rect x="177" y="4" width="1" height="1"/><rect x="2" y="5" width="1" height="1"/><rect x="3" y="5" width="1" height="1"/><rect x="4" y="5" width="1" height="1"/><rect x="5" y="5" width="1" height="1"/><rect x="12" y="5" width="1" height="1"/><rect x="13" y="5" width="1" height="1"/><rect x="18" y="5" width="1" height="1"/><rect x="19" y="5" width="1" height="1"/><rect x="24" y="5" width="1" height="1"/><rect x="25" y="5" width="1" height="1"/><rect x="28" y="5" width="1" height="1"/><rect x="29" y="5" width="1" height="1"/><rect x="32" y="5" width="1" height="1"/><rect x="33" y="5" width="1" height="1"/><rect x="38" y="5" width="1" height="1"/><rect x="39" y="5" width="1" height="1"/><rect x="42" y="5" width="1" height="1"/><rect x="43" y="5" width="1" height="1"/><rect x="46" y="5" width="1" height="1"/><rect x="47" y="5" width="1" height="1"/><rect x="52" y="5" width="1" height="1"/><rect x="53" y="5" width="1" height="1"/><rect x="54" y="5" width="1" height="1"/><rect x="55" y="5" width="1" height="1"/><rect x="56" y="5" width="1" height="1"/><rect x="57" y="5" width="1" height="1"/><rect x="62" y="5" width="1" height="1"/><rect x="63" y="5" width="1" height="1"/><rect x="64" y="5" width="1" height="1"/><rect x="65" y="5" width="1" height="1"/><rect x="66" y="5" width="1" height="1"/><rect x="67" y="5" width="1" height="1"/><rect x="82" y="5" width="1" height="1"/><rect x="83" y="5" width="1" height="1"/><rect x="88" y="5" width="1" height="1"/><rect x="89" y="5" width="1" height="1"/><rect x="92" y="5" width="1" height="1"/><rect x="93" y="5" width="1" height="1"/><rect x="96" y="5" width="1" height="1"/><rect x="97" y="5" width="1" height="1"/><rect x="112" y="5" width="1" height="1"/><rect x="113" y="5" width="1" height="1"/><rect x="114" y="5" width="1" height="1"/><rect x="115" y="5" width="1" height="1"/><rect x="122" y="5" width="1" height="1"/><rect x="123" y="5" width="1" height="1"/><rect x="124" y="5" width="1" height="1"/><rect x="125" y="5" width="1" height="1"/><rect x="126" y="5" width="1" height="1"/><rect x="127" y="5" width="1" height="1"/><rect x="132" y="5" width="1" height="1"/><rect x="133" y="5" width="1" height="1"/><rect x="134" y="5" width="1" height="1"/><rect x="135" y="5" width="1" height="1"/><rect x="136" y="5" width="1" height="1"/><rect x="137" y="5" width="1" height="1"/><rect x="138" y="5" width="1" height="1"/><rect x="139" y="5" width="1" height="1"/><rect x="146" y="5" width="1" height="1"/><rect x="147" y="5" width="1" height="1"/><rect x="148" y="5" width="1" height="1"/><rect x="149" y="5" width="1" height="1"/><rect x="156" y="5" width="1" height="1"/><rect x="157" y="5" width="1" height="1"/><rect x="162" y="5" width="1" height="1"/><rect x="163" y="5" width="1" height="1"/><rect x="168" y="5" width="1" height="1"/><rect x="169" y="5" width="1" height="1"/><rect x="172" y="5" width="1" height="1"/><rect x="173" y="5" width="1" height="1"/><rect x="176" y="5" width="1" height="1"/><rect x="177" y="5" width="1" height="1"/><rect x="6" y="6" width="1" height="1"/><rect x="7" y="6" width="1" height="1"/><rect x="12" y="6" width="1" height="1"/><rect x="13" y="6" width="1" height="1"/><rect x="18" y="6" width="1" height="1"/><rect x="19" y="6" width="1" height="1"/><rect x="24" y="6" width="1" height="1"/><rect x="25" y="6" width="1" height="1"/><rect x="32" y="6" width="1" height="1"/><rect x="33" y="6" width="1" height="1"/><rect x="38" y="6" width="1" height="1"/><rect x="39" y="6" width="1" height="1"/><rect x="46" y="6" width="1" height="1"/><rect x="47" y="6" width="1" height="1"/><rect x="52" y="6" width="1" height="1"/><rect x="53" y="6" width="1" height="1"/><rect x="62" y="6" width="1" height="1"/><rect x="63" y="6" width="1" height="1"/><rect x="66" y="6" width="1" height="1"/><rect x="67" y="6" width="1" height="1"/><rect x="82" y="6" width="1" height="1"/><rect x="83" y="6" width="1" height="1"/><rect x="88" y="6" width="1" height="1"/><rect x="89" y="6" width="1" height="1"/><rect x="94" y="6" width="1" height="1"/><rect x="95" y="6" width="1" height="1"/><rect x="96" y="6" width="1" height="1"/><rect x="97" y="6" width="1" height="1"/><rect x="116" y="6" width="1" height="1"/><rect x="117" y="6" width="1" height="1"/><rect x="122" y="6" width="1" height="1"/><rect x="123" y="6" width="1" height="1"/><rect x="132" y="6" width="1" height="1"/><rect x="133" y="6" width="1" height="1"/><rect x="138" y="6" width="1" height="1"/><rect x="139" y="6" width="1" height="1"/><rect x="150" y="6" width="1" height="1"/><rect x="151" y="6" width="1" height="1"/><rect x="156" y="6" width="1" height="1"/><rect x="157" y="6" width="1" height="1"/><rect x="162" y="6" width="1" height="1"/><rect x="163" y="6" width="1" height="1"/><rect x="168" y="6" width="1" height="1"/><rect x="169" y="6" width="1" height="1"/><rect x="174" y="6" width="1" height="1"/><rect x="175" y="6" width="1" height="1"/><rect x="176" y="6" width="1" height="1"/><rect x="177" y="6" width="1" height="1"/><rect x="6" y="7" width="1" height="1"/><rect x="7" y="7" width="1" height="1"/><rect x="12" y="7" width="1" height="1"/><rect x="13" y="7" width="1" height="1"/><rect x="18" y="7" width="1" height="1"/><rect x="19" y="7" width="1" height="1"/><rect x="24" y="7" width="1" height="1"/><rect x="25" y="7" width="1" height="1"/><rect x="32" y="7" width="1" height="1"/><rect x="33" y="7" width="1" height="1"/><rect x="38" y="7" width="1" height="1"/><rect x="39" y="7" width="1" height="1"/><rect x="46" y="7" width="1" height="1"/><rect x="47" y="7" width="1" height="1"/><rect x="52" y="7" width="1" height="1"/><rect x="53" y="7" width="1" height="1"/><rect x="62" y="7" width="1" height="1"/><rect x="63" y="7" width="1" height="1"/><rect x="66" y="7" width="1" height="1"/><rect x="67" y="7" width="1" height="1"/><rect x="82" y="7" width="1" height="1"/><rect x="83" y="7" width="1" height="1"/><rect x="88" y="7" width="1" height="1"/><rect x="89" y="7" width="1" height="1"/><rect x="94" y="7" width="1" height="1"/><rect x="95" y="7" width="1" height="1"/><rect x="96" y="7" width="1" height="1"/><rect x="97" y="7" width="1" height="1"/><rect x="116" y="7" width="1" height="1"/><rect x="117" y="7" width="1" height="1"/><rect x="122" y="7" width="1" height="1"/><rect x="123" y="7" width="1" height="1"/><rect x="132" y="7" width="1" height="1"/><rect x="133" y="7" width="1" height="1"/><rect x="138" y="7" width="1" height="1"/><rect x="139" y="7" width="1" height="1"/><rect x="150" y="7" width="1" height="1"/><rect x="151" y="7" width="1" height="1"/><rect x="156" y="7" width="1" height="1"/><rect x="157" y="7" width="1" height="1"/><rect x="162" y="7" width="1" height="1"/><rect x="163" y="7" width="1" height="1"/><rect x="168" y="7" width="1" height="1"/><rect x="169" y="7" width="1" height="1"/><rect x="174" y="7" width="1" height="1"/><rect x="175" y="7" width="1" height="1"/><rect x="176" y="7" width="1" height="1"/><rect x="177" y="7" width="1" height="1"/><rect x="0" y="8" width="1" height="1"/><rect x="1" y="8" width="1" height="1"/><rect x="2" y="8" width="1" height="1"/><rect x="3" y="8" width="1" height="1"/><rect x="4" y="8" width="1" height="1"/><rect x="5" y="8" width="1" height="1"/><rect x="14" y="8" width="1" height="1"/><rect x="15" y="8" width="1" height="1"/><rect x="16" y="8" width="1" height="1"/><rect x="17" y="8" width="1" height="1"/><rect x="24" y="8" width="1" height="1"/><rect x="25" y="8" width="1" height="1"/><rect x="32" y="8" width="1" height="1"/><rect x="33" y="8" width="1" height="1"/><rect x="38" y="8" width="1" height="1"/><rect x="39" y="8" width="1" height="1"/><rect x="46" y="8" width="1" height="1"/><rect x="47" y="8" width="1" height="1"/><rect x="52" y="8" width="1" height="1"/><rect x="53" y="8" width="1" height="1"/><rect x="54" y="8" width="1" height="1"/><rect x="55" y="8" width="1" height="1"/><rect x="56" y="8" width="1" height="1"/><rect x="57" y="8" width="1" height="1"/><rect x="62" y="8" width="1" height="1"/><rect x="63" y="8" width="1" height="1"/><rect x="68" y="8" width="1" height="1"/><rect x="69" y="8" width="1" height="1"/><rect x="82" y="8" width="1" height="1"/><rect x="83" y="8" width="1" height="1"/><rect x="88" y="8" width="1" height="1"/><rect x="89" y="8" width="1" height="1"/><rect x="96" y="8" width="1" height="1"/><rect x="97" y="8" width="1" height="1"/><rect x="110" y="8" width="1" height="1"/><rect x="111" y="8" width="1" height="1"/><rect x="112" y="8" width="1" height="1"/><rect x="113" y="8" width="1" height="1"/><rect x="114" y="8" width="1" height="1"/><rect x="115" y="8" width="1" height="1"/><rect x="122" y="8" width="1" height="1"/><rect x="123" y="8" width="1" height="1"/><rect x="124" y="8" width="1" height="1"/><rect x="125" y="8" width="1" height="1"/><rect x="126" y="8" width="1" height="1"/><rect x="127" y="8" width="1" height="1"/><rect x="132" y="8" width="1" height="1"/><rect x="133" y="8" width="1" height="1"/><rect x="138" y="8" width="1" height="1"/><rect x="139" y="8" width="1" height="1"/><rect x="144" y="8" width="1" height="1"/><rect x="145" y="8" width="1" height="1"/><rect x="146" y="8" width="1" height="1"/><rect x="147" y="8" width="1" height="1"/><rect x="148" y="8" width="1" height="1"/><rect x="149" y="8" width="1" height="1"/><rect x="158" y="8" width="1" height="1"/><rect x="159" y="8" width="1" height="1"/><rect x="160" y="8" width="1" height="1"/><rect x="161" y="8" width="1" height="1"/><rect x="168" y="8" width="1" height="1"/><rect x="169" y="8" width="1" height="1"/><rect x="176" y="8" width="1" height="1"/><rect x="177" y="8" width="1" height="1"/><rect x="0" y="9" width="1" height="1"/><rect x="1" y="9" width="1" height="1"/><rect x="2" y="9" width="1" height="1"/><rect x="3" y="9" width="1" height="1"/><rect x="4" y="9" width="1" height="1"/><rect x="5" y="9" width="1" height="1"/><rect x="14" y="9" width="1" height="1"/><rect x="15" y="9" width="1" height="1"/><rect x="16" y="9" width="1" height="1"/><rect x="17" y="9" width="1" height="1"/><rect x="24" y="9" width="1" height="1"/><rect x="25" y="9" width="1" height="1"/><rect x="32" y="9" width="1" height="1"/><rect x="33" y="9" width="1" height="1"/><rect x="38" y="9" width="1" height="1"/><rect x="39" y="9" width="1" height="1"/><rect x="46" y="9" width="1" height="1"/><rect x="47" y="9" width="1" height="1"/><rect x="52" y="9" width="1" height="1"/><rect x="53" y="9" width="1" height="1"/><rect x="54" y="9" width="1" height="1"/><rect x="55" y="9" width="1" height="1"/><rect x="56" y="9" width="1" height="1"/><rect x="57" y="9" width="1" height="1"/><rect x="62" y="9" width="1" height="1"/><rect x="63" y="9" width="1" height="1"/><rect x="68" y="9" width="1" height="1"/><rect x="69" y="9" width="1" height="1"/><rect x="82" y="9" width="1" height="1"/><rect x="83" y="9" width="1" height="1"/><rect x="88" y="9" width="1" height="1"/><rect x="89" y="9" width="1" height="1"/><rect x="96" y="9" width="1" height="1"/><rect x="97" y="9" width="1" height="1"/><rect x="110" y="9" width="1" height="1"/><rect x="111" y="9" width="1" height="1"/><rect x="112" y="9" width="1" height="1"/><rect x="113" y="9" width="1" height="1"/><rect x="114" y="9" width="1" height="1"/><rect x="115" y="9" width="1" height="1"/><rect x="122" y="9" width="1" height="1"/><rect x="123" y="9" width="1" height="1"/><rect x="124" y="9" width="1" height="1"/><rect x="125" y="9" width="1" height="1"/><rect x="126" y="9" width="1" height="1"/><rect x="127" y="9" width="1" height="1"/><rect x="132" y="9" width="1" height="1"/><rect x="133" y="9" width="1" height="1"/><rect x="138" y="9" width="1" height="1"/><rect x="139" y="9" width="1" height="1"/><rect x="144" y="9" width="1" height="1"/><rect x="145" y="9" width="1" height="1"/><rect x="146" y="9" width="1" height="1"/><rect x="147" y="9" width="1" height="1"/><rect x="148" y="9" width="1" height="1"/><rect x="149" y="9" width="1" height="1"/><rect x="158" y="9" width="1" height="1"/><rect x="159" y="9" width="1" height="1"/><rect x="160" y="9" width="1" height="1"/><rect x="161" y="9" width="1" height="1"/><rect x="168" y="9" width="1" height="1"/><rect x="169" y="9" width="1" height="1"/><rect x="176" y="9" width="1" height="1"/><rect x="177" y="9" width="1" height="1"/></g></svg>